<?xml version="1.0" encoding="utf-8"?>
<!-- Generator: Adobe Illustrator 23.0.3, SVG Export Plug-In . SVG Version: 6.00 Build 0)  -->
<svg version="1.1" id="svg6584" xmlns="http://www.w3.org/2000/svg" xmlns:xlink="http://www.w3.org/1999/xlink" x="0px" y="0px"
	 viewBox="0 0 105.1 69" style="enable-background:new 0 0 105.1 69;" xml:space="preserve">
<style type="text/css">
	.st0{fill:none;stroke:#2E3192;stroke-width:5;stroke-miterlimit:10;}
	.st1{fill:none;}
	.st2{fill:#FFFFFF;stroke:#2E3192;stroke-width:5;stroke-miterlimit:10;}
</style>
<g>
	<g id="layer1" transform="translate(0,-952.362)">
		<path id="path6511" class="st0" d="M35.8,954.9c-20.8,0-33.3,16.7-33.3,25c0,8.3,4.2,14.6,12.5,14.6s12.5,2.1,12.5,8.3
			c0,8.3,6.3,14.6,14.6,14.6c27.1,0,39.6-14.6,39.6-29.2C81.7,963.2,60.8,954.9,35.8,954.9L35.8,954.9z M30.6,963.2
			c2.9,0,5.2,2.3,5.2,5.2s-2.3,5.2-5.2,5.2c-2.9,0-5.2-2.3-5.2-5.2S27.7,963.2,30.6,963.2z M47.3,963.2c2.9,0,5.2,2.3,5.2,5.2
			s-2.3,5.2-5.2,5.2c-2.9,0-5.2-2.3-5.2-5.2S44.4,963.2,47.3,963.2z M64,971.5c2.9,0,5.2,2.3,5.2,5.2s-2.3,5.2-5.2,5.2
			s-5.2-2.3-5.2-5.2S61.1,971.5,64,971.5z M16,975.7c2.9,0,5.2,2.3,5.2,5.2s-2.3,5.2-5.2,5.2s-5.2-2.3-5.2-5.2S13.2,975.7,16,975.7z
			 M42.1,996.5c3.5,0,6.3,2.8,6.3,6.3s-2.8,6.2-6.3,6.2c-3.5,0-6.3-2.8-6.3-6.3S38.6,996.5,42.1,996.5L42.1,996.5z"/>
	</g>
	<path class="st1" d="M61.9,4.9l43.2,20.9L84.3,69L41,48.2L61.9,4.9z"/>
	<path class="st2" d="M62.3,36.2c-3-1.4-6.6-0.2-8,2.8c-1.1,2.4-3.8,2.6-5.3,1.9c0.6,3,2.8,5.8,5.5,7.1c4,1.9,8.8,0.3,10.7-3.7
		C66.6,41.3,65.3,37.7,62.3,36.2z M95.2,31.3l-1.2-3.6c-0.4-1-1.5-1.6-2.5-1.2l-23.9,8.3l2.6,7.3l23.9-8.3
		C95,33.5,95.5,32.3,95.2,31.3z"/>
</g>
</svg>
