<?xml version="1.0" encoding="utf-8"?>
<!-- Generator: Adobe Illustrator 23.0.3, SVG Export Plug-In . SVG Version: 6.00 Build 0)  -->
<svg version="1.1" id="Layer_1" xmlns="http://www.w3.org/2000/svg" xmlns:xlink="http://www.w3.org/1999/xlink" x="0px" y="0px"
	 viewBox="0 0 32 32" style="enable-background:new 0 0 32 32;" xml:space="preserve">
<title></title>
<g id="Icons">
	<path d="M25,30c-0.2,0-0.5-0.1-0.7-0.3L16,22.3l-8.3,7.4c-0.4,0.4-1,0.3-1.4-0.1C6.1,29.5,6,29.2,6,29V3c0-0.6,0.4-1,1-1h18
		c0.6,0,1,0.4,1,1v26c0,0.4-0.2,0.7-0.6,0.9C25.3,30,25.1,30,25,30z M16,20c0.2,0,0.5,0.1,0.7,0.3l7.3,6.5V4H8v22.8l7.3-6.5
		C15.5,20.1,15.8,20,16,20z"/>
</g>
</svg>
